# xmcd CD database file
#
# Track frame offsets:
#	150
#	16520
#	31726
#	48416
#	63974
#	77312
#	96235
#	112542
#	126112
#	138567
#	140592
#	142651
#	159446
#	175303
#	191062
#	206431
#	221472
#	241380
#	257703
#	270070
#
# Disc length: 3781 seconds
#
# Revision: 0
# Processed by: cddbd v1.5.2PL0 Copyright (c) Steve Scherf et al.
# Submitted via: CDex 1.51
#
DISCID=fd0ec314
DTITLE=Jeroen Bos - Liedjes uit de natuur
DYEAR=2003
DGENRE=Jazz
TTITLE0=De Wolf
TTITLE1=De Ijsbeer
TTITLE2=De olifant
TTITLE3=Eten of gegeten worden
TTITLE4=Dagvlinder
TTITLE5=Red de neushoorn
TTITLE6=Berinnetje
TTITLE7=Trekvogelpad
TTITLE8=Lieve Kerstman
TTITLE9=Nieuws uit de natuur
TTITLE10=Nieuws uit de natuur (instr.)
TTITLE11=De wolf (instr.)
TTITLE12=De ijsbeer (instr.)
TTITLE13=De olifant (instr.)
TTITLE14=Eten of gegeten worden (instr.)
TTITLE15=Dagvlinder (instr.)
TTITLE16=Red de neushoorn (instr.)
TTITLE17=Berinnetje (Instr.)
TTITLE18=Trekvogelpad (instr.)
TTITLE19=Lieve kerstman (instr.)
EXTD=YEAR: 2003
EXTT0=
EXTT1=
EXTT2=
EXTT3=
EXTT4=
EXTT5=
EXTT6=
EXTT7=
EXTT8=
EXTT9=
EXTT10=
EXTT11=
EXTT12=
EXTT13=
EXTT14=
EXTT15=
EXTT16=
EXTT17=
EXTT18=
EXTT19=
PLAYORDER=
